<svg xmlns="http://www.w3.org/2000/svg" xmlns:xlink="http://www.w3.org/1999/xlink" width="280" height="90">
  <defs>
    <path id="a" d="M.25.012h13.132v9.184H.25z"/>
    <path id="c" d="M.219.012h13.133v9.184H.219z"/>
  </defs>
  <g fill="none" fill-rule="evenodd">
    <path fill="#BDC92F" d="M19.737 69.976C22.943 45.175 1.217 37.19 0 36.764v-2.3c3.574-.43 7.468-.433 11.731.168 0 0 34.321 2.458 34.243 35.761l-26.237-.417"/>
    <path fill="#004B86" d="M19.737 1.255C22.943 26.056 1.217 34.04 0 34.468v2.303c3.574.426 7.468.433 11.731-.17 0 0 34.321-2.46 34.243-35.763l-26.237.417M58.435.835h9.034v15.168h.108L76.02.835h9.735L75.697 17.402l11.297 21.837H76.829l-6.936-14.47-2.424 3.712v10.758h-9.034V.835M93.823.835h22.216v7.314H102.86v7.694h12.37v7.312h-12.37v8.769h13.77v7.315H93.823V.835M132.71 27.512v1.347c0 2.902.81 5.107 3.927 5.107 3.172 0 4.09-2.365 4.09-4.57 0-8.282-16.512-3.659-16.512-18.018 0-6.13 3.28-11.293 12.586-11.293 9.036 0 12.261 4.568 12.261 10.485v.916h-8.712c0-1.83-.214-3.174-.753-4.034-.54-.917-1.397-1.344-2.744-1.344-2.257 0-3.602 1.344-3.602 4.139 0 8.015 16.51 3.981 16.51 17.535 0 8.715-4.84 12.207-13.124 12.207C130.075 39.989 124 38 124 29.988v-2.476h8.71m33.401 0v1.347c0 2.902.808 5.107 3.928 5.107 3.173 0 4.09-2.365 4.09-4.57 0-8.282-16.514-3.659-16.514-18.018 0-6.13 3.28-11.293 12.584-11.293 9.037 0 12.265 4.568 12.265 10.485v.916h-8.713c0-1.83-.215-3.174-.754-4.034-.537-.917-1.396-1.344-2.742-1.344-2.257 0-3.603 1.344-3.603 4.139 0 8.015 16.51 3.981 16.51 17.535 0 8.715-4.839 12.207-13.123 12.207-6.561 0-12.637-1.988-12.637-10.001v-2.476h8.71M192.036.835h9.038v31.089h13.067v7.315h-22.105V.835M221.46.835h22.212v7.314h-13.18v7.694h12.374v7.312h-12.374v8.769h13.77v7.315H221.46V.835M261.905 17.024h2.796c3.658 0 4.628-2.743 4.628-5 0-2.906-1.078-4.843-4.681-4.843h-2.743v9.843zM252.872.835h15.164c7.695 0 10.326 4.735 10.326 10.005 0 5.593-2.26 8.336-6.451 9.357v.108c5.754.809 6.075 4.412 6.183 9.574.163 7.582.431 8.336 1.722 8.875v.485h-9.734c-.697-1.291-.969-3.444-.969-7.8 0-6.67-.913-8.066-3.766-8.066h-3.442V39.24h-9.033V.835zM58.445 48.916h12.432v4.092H63.5v4.305h6.924v4.093H63.5v8.998h-5.055V48.916M87.46 67.455c2.046 0 2.345-1.898 2.345-7.795 0-5.898-.3-7.796-2.345-7.796-1.989 0-2.289 1.898-2.289 7.796 0 5.897.3 7.795 2.29 7.795zm.03 3.373c-6.653 0-7.557-4.335-7.557-11.168 0-6.833.904-11.168 7.557-11.168 7.161 0 7.553 5.207 7.553 11.168 0 5.96-.392 11.168-7.553 11.168zm31.573-7.524c0 4.21-1.204 7.524-7.074 7.524s-7.075-3.314-7.075-7.524V48.916h5.06v15.863c0 1.685.662 2.676 2.015 2.676 1.352 0 2.015-.991 2.015-2.676V48.916h5.059v14.388M129.414 48.916h5.811l4.156 13.963h.058V48.916h4.696v21.488h-5.721l-4.422-14.806h-.062v14.806h-4.516V48.916M159.815 66.673h1.353c2.348 0 3.16-.933 3.16-7.374 0-5.238-.42-6.653-3.098-6.653h-1.415v14.027zm-5.055-17.757h7.49c4.997 0 7.137 2.586 7.137 10.05 0 7.797-.995 11.438-7.646 11.438h-6.981V48.916zm31.272 3.91h-.058l-1.775 9.57h3.67l-1.837-9.57zm-3.069-3.91h6.323l5.36 21.488h-5.242l-.778-4.093h-5.151l-.753 4.093h-5.237l5.478-21.488zM205.242 53.008h-4.518v-4.092h14.086v4.092h-4.514v17.396h-5.054V53.008M224.14 70.404h5.055V48.916h-5.055zM246.72 67.455c2.049 0 2.35-1.898 2.35-7.795 0-5.898-.301-7.796-2.35-7.796-1.982 0-2.285 1.898-2.285 7.796 0 5.897.303 7.795 2.285 7.795zm.033 3.373c-6.653 0-7.552-4.335-7.552-11.168 0-6.833.899-11.168 7.552-11.168 7.165 0 7.553 5.207 7.553 11.168 0 5.96-.388 11.168-7.553 11.168zM263.605 48.916h5.808l4.154 13.963h.063V48.916h4.693v21.488h-5.72l-4.424-14.806h-.057v14.806h-4.517V48.916M26.383 86.034c-.418.21-1.254.418-2.326.418-2.483 0-4.352-1.568-4.352-4.456 0-2.758 1.869-4.626 4.6-4.626 1.098 0 1.79.235 2.09.392l-.273.927c-.432-.209-1.046-.365-1.778-.365-2.065 0-3.437 1.32-3.437 3.633 0 2.156 1.242 3.541 3.385 3.541.693 0 1.398-.144 1.856-.366l.235.902m1.764-8.991h1.15v3.947h.025c.183-.327.471-.615.824-.81.34-.197.745-.328 1.176-.328.85 0 2.208.523 2.208 2.706v3.764h-1.15v-3.634c0-1.019-.378-1.882-1.463-1.882-.745 0-1.333.523-1.542 1.15-.066.157-.079.327-.079.55v3.816h-1.15v-9.28m10.964 6.052c-1.254-.026-2.679.196-2.679 1.424 0 .745.497 1.098 1.085 1.098.823 0 1.346-.523 1.529-1.059.04-.117.065-.248.065-.366v-1.097zm.17 3.228l-.091-.797h-.04c-.352.496-1.032.94-1.934.94-1.28 0-1.934-.901-1.934-1.816 0-1.53 1.36-2.366 3.803-2.353v-.13c0-.523-.144-1.464-1.438-1.464-.588 0-1.202.183-1.646.47l-.261-.758c.522-.34 1.28-.562 2.077-.562 1.935 0 2.405 1.32 2.405 2.588v2.365c0 .55.026 1.085.105 1.517H39.28z"/>
    <g transform="translate(42.154 79.84)">
      <mask id="b" fill="#fff">
        <use xlink:href="#a"/>
      </mask>
      <path fill="#004B86" d="M.301 1.868C.301 1.214.288.678.25.156h1.019L1.334 1.2h.026C1.674.601 2.406.012 3.451.012c.876 0 2.235.523 2.235 2.692v3.777h-1.15V2.835c0-1.02-.379-1.87-1.464-1.87-.758 0-1.346.537-1.542 1.177-.052.144-.078.34-.078.536v3.803H.302V1.868m11.892.784c0-.196-.014-.366-.066-.523-.21-.666-.77-1.215-1.607-1.215-1.098 0-1.882.928-1.882 2.391 0 1.242.627 2.274 1.869 2.274.705 0 1.346-.444 1.594-1.176a2.01 2.01 0 0 0 .092-.614V2.652zM13.382.156a28.26 28.26 0 0 0-.051 1.738v3.672c0 1.45-.288 2.34-.902 2.888-.615.576-1.503.758-2.3.758-.758 0-1.595-.182-2.104-.523l.287-.875c.418.261 1.071.497 1.856.497 1.176 0 2.039-.614 2.039-2.209v-.706h-.027c-.352.588-1.032 1.059-2.012 1.059-1.568 0-2.692-1.333-2.692-3.084 0-2.144 1.398-3.359 2.849-3.359 1.097 0 1.699.575 1.973 1.098h.026l.052-.954h1.006z" mask="url(#b)"/>
    </g>
    <path fill="#004B86" d="M57.692 86.322h1.15v-6.326h-1.15v6.326zm1.28-8.103c.014.392-.274.706-.731.706-.405 0-.693-.314-.693-.706a.7.7 0 0 1 .72-.719c.43 0 .705.314.705.72z"/>
    <g transform="translate(60.857 79.84)">
      <mask id="d" fill="#fff">
        <use xlink:href="#c"/>
      </mask>
      <path fill="#004B86" d="M.271 1.868C.271 1.214.258.678.22.156h1.02L1.303 1.2h.026C1.643.601 2.375.012 3.42.012c.876 0 2.236.523 2.236 2.692v3.777h-1.15V2.835c0-1.02-.38-1.87-1.464-1.87-.758 0-1.346.537-1.542 1.177-.053.144-.079.34-.079.536v3.803H.271V1.868m11.892.784a1.64 1.64 0 0 0-.065-.523c-.21-.666-.771-1.215-1.608-1.215-1.097 0-1.881.928-1.881 2.391 0 1.242.627 2.274 1.868 2.274.706 0 1.347-.444 1.595-1.176.065-.196.091-.418.091-.614V2.652zm1.19-2.496c-.027.457-.053.967-.053 1.738v3.672c0 1.45-.287 2.34-.902 2.888-.614.576-1.503.758-2.3.758-.758 0-1.594-.182-2.104-.523l.288-.875c.418.261 1.072.497 1.856.497 1.176 0 2.038-.614 2.038-2.209v-.706h-.026c-.353.588-1.032 1.059-2.012 1.059-1.569 0-2.692-1.333-2.692-3.084 0-2.144 1.398-3.359 2.848-3.359 1.098 0 1.7.575 1.974 1.098h.026l.052-.954h1.006z" mask="url(#d)"/>
    </g>
    <path fill="#004B86" d="M80.978 78.18v1.816h1.647v.876h-1.647v3.41c0 .785.222 1.23.863 1.23.3 0 .522-.04.666-.08l.052.863c-.222.092-.575.157-1.019.157-.536 0-.967-.17-1.241-.483-.327-.34-.445-.902-.445-1.647v-3.45h-.98v-.876h.98V78.48l1.124-.3m3.319-1.137h1.15v3.947h.026c.183-.327.47-.615.824-.81.34-.197.744-.328 1.176-.328.85 0 2.209.523 2.209 2.706v3.764h-1.15v-3.634c0-1.019-.38-1.882-1.464-1.882-.745 0-1.333.523-1.542 1.15-.066.157-.079.327-.079.55v3.816h-1.15v-9.28m11.644 5.503c.013-.732-.3-1.869-1.595-1.869-1.163 0-1.672 1.071-1.764 1.869h3.359zm-3.372.823c.026 1.555 1.02 2.196 2.17 2.196.823 0 1.32-.144 1.75-.327l.197.823c-.405.183-1.098.392-2.104.392-1.948 0-3.11-1.28-3.11-3.188 0-1.909 1.123-3.412 2.966-3.412 2.065 0 2.613 1.817 2.613 2.98 0 .236-.026.418-.039.536H92.57zM102.003 86.322h1.15v-9.279h-1.15zM105.466 86.322h1.15v-6.326h-1.15v6.326zm1.28-8.103c.014.392-.274.706-.731.706-.405 0-.693-.314-.693-.706a.7.7 0 0 1 .719-.719c.431 0 .706.314.706.72zm2.6 1.777l1.243 3.555c.209.575.379 1.098.51 1.62h.038c.144-.522.327-1.045.536-1.62l1.229-3.555h1.202l-2.483 6.326h-1.098l-2.404-6.326h1.228m10.101 2.549c.013-.732-.3-1.869-1.594-1.869-1.164 0-1.673 1.071-1.765 1.869h3.36zm-3.372.823c.027 1.555 1.02 2.196 2.17 2.196.823 0 1.32-.144 1.751-.327l.196.823c-.405.183-1.098.392-2.104.392-1.947 0-3.11-1.28-3.11-3.188 0-1.909 1.124-3.412 2.966-3.412 2.065 0 2.614 1.817 2.614 2.98 0 .236-.026.418-.04.536h-4.443zm6.129 1.777c.34.223.94.458 1.516.458.836 0 1.228-.419 1.228-.941 0-.549-.326-.85-1.176-1.163-1.137-.405-1.673-1.033-1.673-1.79 0-1.02.824-1.857 2.183-1.857.64 0 1.202.184 1.555.393l-.288.836a2.46 2.46 0 0 0-1.294-.366c-.679 0-1.058.392-1.058.863 0 .522.38.758 1.202 1.071 1.098.419 1.66.967 1.66 1.908 0 1.111-.862 1.895-2.365 1.895-.693 0-1.334-.17-1.777-.431l.287-.876m9.565-1.973c0 1.385.797 2.43 1.92 2.43 1.099 0 1.922-1.032 1.922-2.456 0-1.072-.536-2.43-1.895-2.43-1.36 0-1.947 1.254-1.947 2.456zm5.018-.065c0 2.339-1.62 3.358-3.15 3.358-1.711 0-3.031-1.254-3.031-3.254 0-2.117 1.385-3.359 3.136-3.359 1.817 0 3.045 1.32 3.045 3.255zm1.947 3.215v-5.45h-.889v-.876h.89v-.3c0-.889.195-1.7.73-2.209.432-.418 1.007-.588 1.543-.588.405 0 .758.092.98.183l-.157.889a1.716 1.716 0 0 0-.732-.144c-.98 0-1.228.862-1.228 1.83v.34h1.53v.875h-1.53v5.45h-1.137m8.363-2.575c0 .17.026.327.052.47.21.797.902 1.347 1.725 1.347 1.216 0 1.921-.994 1.921-2.444 0-1.268-.666-2.352-1.882-2.352-.784 0-1.515.561-1.738 1.424-.039.144-.078.313-.078.47v1.085zm-1.137-1.686c0-.81-.026-1.464-.052-2.065h1.032l.052 1.085h.027c.47-.771 1.215-1.229 2.247-1.229 1.53 0 2.68 1.294 2.68 3.216 0 2.273-1.386 3.397-2.876 3.397-.836 0-1.568-.366-1.947-.993h-.026v3.437h-1.137v-6.848zm11.826.484c.014-.732-.3-1.869-1.594-1.869-1.163 0-1.673 1.071-1.764 1.869h3.358zm-3.371.823c.026 1.555 1.02 2.196 2.169 2.196.823 0 1.32-.144 1.752-.327l.195.823c-.405.183-1.097.392-2.104.392-1.947 0-3.11-1.28-3.11-3.188 0-1.909 1.124-3.412 2.966-3.412 2.065 0 2.614 1.817 2.614 2.98 0 .236-.026.418-.039.536h-4.443zm6.99-.196c0 1.385.798 2.43 1.922 2.43 1.098 0 1.92-1.032 1.92-2.456 0-1.072-.535-2.43-1.894-2.43-1.36 0-1.947 1.254-1.947 2.456zm5.019-.065c0 2.339-1.62 3.358-3.15 3.358-1.712 0-3.031-1.254-3.031-3.254 0-2.117 1.385-3.359 3.136-3.359 1.817 0 3.045 1.32 3.045 3.255zm2.966.64c0 .17.026.327.052.47.21.797.901 1.347 1.725 1.347 1.215 0 1.92-.994 1.92-2.444 0-1.268-.665-2.352-1.881-2.352-.784 0-1.516.561-1.738 1.424-.04.144-.078.313-.078.47v1.085zm-1.138-1.686c0-.81-.025-1.464-.052-2.065h1.033l.052 1.085h.026c.47-.771 1.216-1.229 2.248-1.229 1.529 0 2.679 1.294 2.679 3.216 0 2.273-1.385 3.397-2.875 3.397-.836 0-1.568-.366-1.947-.993h-.026v3.437h-1.138v-6.848zM176.068 86.322h1.15v-9.279h-1.15zM183.543 82.545c.013-.732-.3-1.869-1.594-1.869-1.164 0-1.673 1.071-1.765 1.869h3.359zm-3.372.823c.026 1.555 1.02 2.196 2.17 2.196.823 0 1.32-.144 1.75-.327l.197.823c-.405.183-1.098.392-2.104.392-1.947 0-3.11-1.28-3.11-3.188 0-1.909 1.123-3.412 2.966-3.412 2.065 0 2.614 1.817 2.614 2.98 0 .236-.027.418-.04.536h-4.443zm9.891-3.372l.837 3.215c.183.706.353 1.36.47 2.013h.04c.143-.64.352-1.32.562-2l1.032-3.228h.967l.98 3.163c.236.758.419 1.424.562 2.065h.04c.104-.64.274-1.307.483-2.052l.902-3.176h1.137l-2.039 6.326h-1.046l-.967-3.02a21 21 0 0 1-.562-2.077h-.026a18.646 18.646 0 0 1-.575 2.09l-1.02 3.007h-1.045l-1.908-6.326h1.176m9.54 6.326h1.15v-6.326h-1.15v6.326zm1.28-8.103c.014.392-.274.706-.73.706-.406 0-.694-.314-.694-.706a.7.7 0 0 1 .72-.719c.43 0 .705.314.705.72zm3.542-.04v1.817h1.647v.876h-1.647v3.41c0 .785.222 1.23.863 1.23.3 0 .522-.04.666-.08l.052.863c-.222.092-.575.157-1.019.157-.536 0-.967-.17-1.241-.483-.327-.34-.445-.902-.445-1.647v-3.45h-.98v-.876h.98V78.48l1.124-.3m3.319-1.137h1.15v3.947h.026c.183-.327.47-.615.824-.81.34-.197.744-.328 1.176-.328.85 0 2.208.523 2.208 2.706v3.764h-1.15v-3.634c0-1.019-.379-1.882-1.463-1.882-.745 0-1.333.523-1.542 1.15-.066.157-.079.327-.079.55v3.816h-1.15v-9.28m15.093 5.529c0-.144-.013-.34-.052-.484-.17-.732-.797-1.333-1.66-1.333-1.189 0-1.895 1.046-1.895 2.444 0 1.281.628 2.34 1.87 2.34.77 0 1.476-.51 1.685-1.373.04-.157.052-.314.052-.496V82.57zm1.15-5.528v7.645c0 .562.013 1.202.053 1.634h-1.033l-.052-1.098h-.026c-.353.706-1.124 1.241-2.157 1.241-1.529 0-2.705-1.294-2.705-3.215-.013-2.104 1.294-3.398 2.836-3.398.967 0 1.62.458 1.908.968h.026v-3.777h1.15zm2.287 9.279h1.15v-6.326h-1.15v6.326zm1.28-8.103c.014.392-.274.706-.731.706-.405 0-.693-.314-.693-.706 0-.405.3-.719.719-.719.431 0 .705.314.705.72zm2 6.926c.34.223.94.458 1.516.458.836 0 1.228-.419 1.228-.941 0-.549-.327-.85-1.176-1.163-1.137-.405-1.673-1.033-1.673-1.79 0-1.02.823-1.857 2.182-1.857.64 0 1.203.184 1.556.393l-.288.836a2.46 2.46 0 0 0-1.294-.366c-.68 0-1.058.392-1.058.863 0 .522.379.758 1.202 1.071 1.098.419 1.66.967 1.66 1.908 0 1.111-.863 1.895-2.366 1.895-.692 0-1.333-.17-1.777-.431l.288-.876m9.042-2.051c-1.254-.026-2.679.196-2.679 1.424 0 .745.497 1.098 1.085 1.098.823 0 1.346-.523 1.529-1.059.04-.117.065-.248.065-.366v-1.097zm.17 3.228l-.091-.797h-.04c-.352.496-1.032.94-1.934.94-1.28 0-1.934-.901-1.934-1.816 0-1.53 1.36-2.366 3.803-2.353v-.13c0-.523-.144-1.464-1.437-1.464-.589 0-1.203.183-1.647.47l-.262-.758c.523-.34 1.281-.562 2.079-.562 1.934 0 2.404 1.32 2.404 2.588v2.365c0 .55.026 1.085.105 1.517h-1.046zm4.312-2.536c0 .144.026.288.053.418.222.798.888 1.346 1.725 1.346 1.202 0 1.92-.98 1.92-2.43 0-1.268-.653-2.352-1.881-2.352-.784 0-1.516.535-1.751 1.41-.027.131-.066.288-.066.471v1.137zm-1.189 2.536c.026-.432.052-1.072.052-1.634v-7.645h1.137v3.972h.026c.405-.705 1.137-1.163 2.157-1.163 1.568 0 2.679 1.308 2.666 3.228 0 2.261-1.425 3.385-2.836 3.385-.915 0-1.647-.353-2.117-1.189h-.04l-.052 1.046h-.993zm7.866 0h1.15v-6.326h-1.15v6.326zm1.281-8.103c.013.392-.274.706-.731.706-.406 0-.693-.314-.693-.706a.7.7 0 0 1 .719-.719c.431 0 .705.314.705.72zM253.191 86.322h1.15v-9.279h-1.15zM256.654 86.322h1.15v-6.326h-1.15v6.326zm1.28-8.103c.014.392-.273.706-.731.706-.405 0-.693-.314-.693-.706 0-.405.301-.719.72-.719.43 0 .705.314.705.72zm3.542-.04v1.817h1.647v.876h-1.647v3.41c0 .785.222 1.23.863 1.23.3 0 .522-.04.666-.08l.052.863c-.222.092-.575.157-1.02.157-.535 0-.966-.17-1.24-.483-.327-.34-.445-.902-.445-1.647v-3.45h-.98v-.876h.98V78.48l1.124-.3m3.319 8.142h1.15v-6.326h-1.15v6.326zm1.28-8.103c.014.392-.273.706-.731.706-.405 0-.693-.314-.693-.706a.7.7 0 0 1 .72-.719c.43 0 .705.314.705.72zm6.169 4.326c.013-.732-.3-1.869-1.595-1.869-1.163 0-1.672 1.071-1.764 1.869h3.359zm-3.372.823c.026 1.555 1.02 2.196 2.17 2.196.823 0 1.32-.144 1.75-.327l.197.823c-.405.183-1.098.392-2.104.392-1.948 0-3.11-1.28-3.11-3.188 0-1.909 1.123-3.412 2.966-3.412 2.065 0 2.614 1.817 2.614 2.98 0 .236-.026.418-.04.536h-4.443zM275 85.145c.34.223.942.458 1.516.458.837 0 1.229-.419 1.229-.941 0-.549-.327-.85-1.176-1.163-1.137-.405-1.673-1.033-1.673-1.79 0-1.02.823-1.857 2.182-1.857.64 0 1.203.184 1.556.393l-.288.836a2.46 2.46 0 0 0-1.294-.366c-.68 0-1.059.392-1.059.863 0 .522.38.758 1.203 1.071 1.098.419 1.66.967 1.66 1.908 0 1.111-.863 1.895-2.366 1.895-.693 0-1.333-.17-1.777-.431l.287-.876"/>
  </g>
</svg>
